<svg version="1.1" width="247" height="49" xmlns="http://www.w3.org/2000/svg" xmlns:xlink="http://www.w3.org/1999/xlink" overflow="hidden"><style>
.MsftOfcThm_Background1_Fill {
 fill:#FFFFFF; 
}
</style>
<defs><clipPath id="clip0"><rect x="1164" y="333" width="247" height="49"/></clipPath><clipPath id="clip1"><rect x="1165" y="333" width="246" height="48"/></clipPath><clipPath id="clip2"><rect x="1165" y="333" width="246" height="48"/></clipPath></defs><g clip-path="url(#clip0)" transform="matrix(1,0,0,1,-1164,-333)"><g clip-path="url(#clip1)"><g clip-path="url(#clip2)"><path d=" M 313.452 274.362 C 313.452 273.453 314.18 272.634 315.18 272.634 C 316.089 272.634 316.816 273.453 316.816 274.362 C 316.816 275.271 316.089 276.089 315.18 276.089 C 314.18 275.998 313.452 275.271 313.452 274.362 Z" stroke="#000000" stroke-width="0.467724" stroke-miterlimit="10" fill="#FFFFFF" fill-rule="evenodd" fill-opacity="1" transform="matrix(1,0,0,1.00297,1028.65,27.5967)"/><path d=" M 314.452 275.271 L 314.816 275.271 L 314.816 274.543 L 315.18 274.543 C 315.543 274.543 315.543 274.634 315.543 274.907 C 315.543 275.089 315.543 275.18 315.543 275.271 L 315.998 275.271 L 315.998 275.18 C 315.907 275.18 315.907 275.089 315.907 274.816 C 315.907 274.453 315.816 274.453 315.634 274.362 C 315.816 274.271 315.998 274.089 315.998 273.907 C 315.998 273.816 315.907 273.453 315.452 273.453 L 314.543 273.453 L 314.543 275.271 L 314.452 275.271 Z M 314.816 274.271 L 314.816 273.725 L 315.27 273.725 C 315.452 273.725 315.543 273.816 315.543 273.998 C 315.543 274.089 315.452 274.271 315.18 274.271 L 314.816 274.271 Z" fill="#FFFFFF" fill-rule="evenodd" fill-opacity="1" transform="matrix(1,0,0,1.00297,1028.65,27.5967)"/><path d=" M 289.18 269.544 L 281.362 283.907 L 300.543 283.907 L 301.816 281.543 L 290.907 281.543 L 292.998 277.998 L 303.816 277.998 L 305.18 275.634 L 294.18 275.634 L 296.271 271.998 L 316.907 271.998 L 316.907 269.544 Z" fill="#FFFFFF" fill-rule="evenodd" fill-opacity="1" transform="matrix(1,0,0,1.00297,1028.65,27.5967)"/><path d=" M 270.271 269.544 C 267.544 269.544 266.362 271.725 266.362 271.725 L 264.18 275.634 C 262.998 277.998 265.362 277.998 265.362 277.998 L 273.362 277.998 C 273.725 277.998 273.453 278.362 273.453 278.362 L 272.089 280.816 C 271.816 281.362 271.089 281.362 271.089 281.362 L 270.362 281.362 C 269.544 281.271 269.816 280.816 269.816 280.816 L 270.271 279.998 L 261.725 279.998 L 260.635 281.998 C 259.635 283.998 262.089 283.998 262.089 283.998 L 276.634 283.998 C 278.816 283.998 279.998 281.816 279.998 281.816 L 282.18 277.816 C 283.362 275.725 280.907 275.725 280.907 275.725 L 272.725 275.725 L 274.18 273.271 C 274.725 272.18 275.543 272.18 275.543 272.18 L 276.18 272.18 C 276.907 272.18 276.634 272.725 276.634 272.725 L 275.998 273.816 L 284.543 273.816 L 285.725 271.634 C 286.816 269.634 284.453 269.634 284.453 269.634 L 270.271 269.634 Z" fill="#FFFFFF" fill-rule="evenodd" fill-opacity="1" transform="matrix(1,0,0,1.00297,1028.65,27.5967)"/><path d=" M 254.725 272.089 C 255.725 272.089 255.362 272.634 255.362 272.634 L 250.907 280.725 C 250.544 281.543 249.453 281.543 249.453 281.543 L 248.362 281.543 C 247.18 281.543 247.544 280.816 247.544 280.816 L 251.998 272.816 C 252.362 271.998 253.089 271.998 253.089 271.998 L 254.725 271.998 L 254.725 272.089 Z M 248.362 269.544 C 245.726 269.544 244.362 272.089 244.362 272.089 L 239.18 281.453 C 237.907 283.907 240.271 283.907 240.271 283.907 L 254.816 283.907 C 257.271 283.907 258.544 281.453 258.544 281.453 L 263.725 272.089 C 265.089 269.544 262.634 269.544 262.634 269.544 L 248.362 269.544 Z" fill="#FFFFFF" fill-rule="evenodd" fill-opacity="1" transform="matrix(1,0,0,1.00297,1028.65,27.5967)"/><path d=" M 232.907 283.907 C 232.907 283.907 235.544 283.907 236.544 281.907 L 238.271 278.725 C 238.907 277.634 237.816 276.634 237.816 276.634 C 239.544 276.18 240.271 275.089 240.271 275.089 L 242.271 271.453 C 242.907 269.544 240.453 269.544 240.453 269.544 L 224.089 269.544 L 217.453 281.543 L 202.362 281.543 L 202.362 283.816 L 232.907 283.816 L 232.907 283.907 Z M 225.998 281.543 L 227.817 277.998 L 231.726 277.998 C 232.726 277.998 232.18 279.089 232.18 279.089 L 231.18 280.816 C 230.817 281.543 229.907 281.543 229.907 281.543 L 225.998 281.543 L 225.998 281.543 Z M 235.089 272.089 C 235.998 272.18 235.635 273.089 235.635 273.089 L 234.726 274.816 C 234.089 275.634 233.18 275.634 233.18 275.634 L 229.271 275.634 L 231.18 272.18 L 235.089 272.18 Z" fill="#FFFFFF" fill-rule="evenodd" fill-opacity="1" transform="matrix(1,0,0,1.00297,1028.65,27.5967)"/><path d=" M 286.543 235.271 C 286.543 234.816 286.907 234.453 287.362 234.453 C 287.816 234.453 288.18 234.816 288.18 235.271 C 288.18 235.726 287.816 236.089 287.362 236.089 C 286.907 236.089 286.543 235.726 286.543 235.271 Z" stroke="#000000" stroke-width="0.233726" stroke-miterlimit="10" fill="#FFFFFF" fill-rule="evenodd" fill-opacity="1" transform="matrix(1,0,0,1.00297,1028.65,27.5967)"/><path d=" M 286.998 235.726 L 287.18 235.726 L 287.18 235.362 L 287.362 235.362 C 287.453 235.362 287.453 235.453 287.453 235.544 C 287.453 235.635 287.453 235.635 287.453 235.635 L 287.725 235.635 L 287.725 235.635 C 287.634 235.635 287.634 235.544 287.634 235.453 C 287.634 235.271 287.543 235.271 287.543 235.271 C 287.634 235.18 287.725 235.18 287.725 234.998 C 287.725 234.907 287.634 234.816 287.362 234.816 L 286.907 234.816 L 286.907 235.726 L 286.998 235.726 Z M 287.18 235.18 L 287.18 234.998 L 287.453 234.998 C 287.543 234.998 287.543 235.089 287.543 235.089 C 287.543 235.18 287.453 235.18 287.362 235.18 L 287.18 235.18 Z" fill="#FFFFFF" fill-rule="evenodd" fill-opacity="1" transform="matrix(1,0,0,1.00297,1028.65,27.5967)"/><path d=" M 274.453 232.907 L 270.544 239.998 L 280.089 239.998 L 280.725 238.907 L 275.362 238.907 L 276.362 237.089 L 281.725 237.089 L 282.362 235.907 L 276.998 235.907 L 277.998 234.089 L 288.271 234.089 L 288.271 232.907 Z" fill="#FFFFFF" fill-rule="evenodd" fill-opacity="1" transform="matrix(1,0,0,1.00297,1028.65,27.5967)"/><path d=" M 264.998 232.907 C 263.634 232.907 262.998 233.998 262.998 233.998 L 261.907 235.998 C 261.362 237.18 262.453 237.18 262.453 237.18 L 266.453 237.18 C 266.634 237.18 266.544 237.362 266.544 237.362 L 265.907 238.635 C 265.816 238.907 265.362 238.907 265.362 238.907 L 264.998 238.907 C 264.634 238.816 264.725 238.544 264.725 238.544 L 264.907 238.18 L 260.635 238.18 L 260.089 239.18 C 259.544 240.18 260.816 240.18 260.816 240.18 L 268.089 240.18 C 269.18 240.18 269.816 239.089 269.816 239.089 L 270.907 237.089 C 271.453 235.998 270.271 235.998 270.271 235.998 L 266.18 235.998 L 266.907 234.726 C 267.18 234.18 267.634 234.18 267.634 234.18 L 267.998 234.18 C 268.362 234.18 268.18 234.453 268.18 234.453 L 267.816 234.998 L 272.18 234.998 L 272.725 233.907 C 273.271 232.907 272.089 232.907 272.089 232.907 L 264.998 232.907 Z" fill="#FFFFFF" fill-rule="evenodd" fill-opacity="1" transform="matrix(1,0,0,1.00297,1028.65,27.5967)"/><path d=" M 257.271 234.089 C 257.725 234.089 257.635 234.453 257.635 234.453 L 255.453 238.544 C 255.271 238.907 254.725 238.907 254.725 238.907 L 254.18 238.907 C 253.635 238.907 253.816 238.544 253.816 238.544 L 255.998 234.544 C 256.18 234.18 256.544 234.18 256.544 234.18 L 257.271 234.18 L 257.271 234.089 Z M 253.998 232.907 C 252.725 232.907 251.998 234.18 251.998 234.18 L 249.362 238.907 C 248.726 240.089 249.907 240.089 249.907 240.089 L 257.18 240.089 C 258.453 240.089 259.089 238.907 259.089 238.907 L 261.634 234.18 C 262.362 232.907 261.089 232.907 261.089 232.907 L 253.998 232.907 Z" fill="#FFFFFF" fill-rule="evenodd" fill-opacity="1" transform="matrix(1,0,0,1.00297,1028.65,27.5967)"/><path d=" M 246.271 239.998 C 246.271 239.998 247.544 239.998 248.089 238.998 L 248.907 237.453 C 249.271 236.907 248.726 236.362 248.726 236.362 C 249.544 236.18 249.907 235.544 249.907 235.544 L 250.998 233.726 C 251.362 232.817 250.089 232.817 250.089 232.817 L 241.907 232.817 L 238.544 238.816 L 230.907 238.816 L 230.907 239.907 L 246.271 239.907 L 246.271 239.998 Z M 242.816 238.907 L 243.726 237.18 L 245.726 237.18 C 246.271 237.18 245.998 237.726 245.998 237.726 L 245.453 238.544 C 245.271 238.907 244.907 238.907 244.907 238.907 L 242.816 238.907 L 242.816 238.907 Z M 247.362 234.089 C 247.816 234.18 247.726 234.635 247.726 234.635 L 247.271 235.453 C 246.907 235.816 246.453 235.816 246.453 235.816 L 244.453 235.816 L 245.453 234.089 L 247.362 234.089 Z" fill="#FFFFFF" fill-rule="evenodd" fill-opacity="1" transform="matrix(1,0,0,1.00297,1028.65,27.5967)"/><path d=" M 318.725 315.634 L 302.998 344.179 L 341.543 344.179 L 343.998 339.725 L 322.361 339.725 L 326.361 332.452 L 347.997 332.452 L 350.634 327.725 L 328.816 327.725 L 332.907 320.361 L 374.27 320.361 L 374.27 315.634 Z" fill="#FFFFFF" fill-rule="evenodd" fill-opacity="1" transform="matrix(1,0,0,1.00297,1028.65,27.5967)"/><path d=" M 280.725 315.634 C 275.271 315.634 272.907 319.998 272.907 319.998 L 268.544 327.816 C 266.089 332.543 270.816 332.543 270.816 332.543 L 286.816 332.543 C 287.453 332.543 287.089 333.179 287.089 333.179 L 284.362 338.179 C 283.816 339.27 282.362 339.27 282.362 339.27 L 280.907 339.27 C 279.362 339.179 279.907 337.998 279.907 337.998 L 280.816 336.452 L 263.907 336.452 L 261.725 340.452 C 259.725 344.27 264.634 344.27 264.634 344.27 L 293.543 344.27 C 298.089 344.27 300.361 339.907 300.361 339.907 L 304.725 331.998 C 307.089 327.725 302.18 327.725 302.18 327.725 L 285.634 327.725 L 288.452 322.725 C 289.543 320.634 291.271 320.634 291.271 320.634 L 292.543 320.634 C 293.998 320.634 293.362 321.725 293.362 321.725 L 292.089 323.907 L 309.18 323.907 L 311.543 319.452 C 313.725 315.634 309.089 315.634 309.089 315.634 L 280.725 315.634 Z" fill="#FFFFFF" fill-rule="evenodd" fill-opacity="1" transform="matrix(1,0,0,1.00297,1028.65,27.5967)"/><path d=" M 249.816 320.634 C 251.816 320.634 251.089 321.816 251.089 321.816 L 242.18 338.089 C 241.362 339.725 239.271 339.725 239.271 339.725 L 237.089 339.725 C 234.635 339.725 235.362 338.27 235.362 338.27 L 244.271 322.27 C 245.18 320.634 246.453 320.634 246.453 320.634 L 249.816 320.634 L 249.816 320.634 Z M 237.089 315.634 C 231.817 315.634 229.089 320.634 229.089 320.634 L 218.817 339.452 C 216.18 344.179 220.908 344.179 220.908 344.179 L 249.998 344.179 C 254.816 344.179 257.453 339.452 257.453 339.452 L 267.816 320.634 C 270.634 315.634 265.725 315.634 265.725 315.634 L 237.089 315.634 Z" fill="#FFFFFF" fill-rule="evenodd" fill-opacity="1" transform="matrix(1,0,0,1.00297,1028.65,27.5967)"/><path d=" M 206.271 344.179 C 206.271 344.179 211.362 344.179 213.362 340.361 L 216.998 334.089 C 218.271 331.816 216.089 329.816 216.089 329.816 C 219.544 328.998 220.998 326.725 220.998 326.725 L 224.998 319.361 C 226.271 315.543 221.271 315.543 221.271 315.543 L 188.544 315.543 L 175.362 339.634 L 145.09 339.634 L 145.09 344.179 L 206.271 344.179 L 206.271 344.179 Z M 192.271 339.725 L 196.09 332.634 L 203.817 332.634 C 205.817 332.725 204.726 334.725 204.726 334.725 L 202.817 338.27 C 201.999 339.816 200.362 339.816 200.362 339.816 L 192.271 339.816 L 192.271 339.725 Z M 210.453 320.634 C 212.271 320.907 211.544 322.634 211.544 322.634 L 209.817 325.998 C 208.544 327.543 206.726 327.543 206.726 327.543 L 198.908 327.543 L 202.635 320.543 L 210.453 320.543 Z" fill="#FFFFFF" fill-rule="evenodd" fill-opacity="1" transform="matrix(1,0,0,1.00297,1028.65,27.5967)"/></g></g></g></svg>